<?xml version="1.0" encoding="UTF-8"?>
<svg id="Layer_2" data-name="Layer 2" xmlns="http://www.w3.org/2000/svg" viewBox="0 0 287.32 299.58">
  <defs>
    <style>
      .cls-1 {
        fill: #fff;
        stroke: #000;
        stroke-miterlimit: 10;
        stroke-width: 1.13px;
      }
    </style>
  </defs>
  <g id="Layer_1-2" data-name="Layer 1">
    <path class="cls-1" d="M284.03,196.27l-34.13-46.97,33.4-45.97c4.63-6.37,3.22-15.29-3.15-19.92-6.39-4.63-15.29-3.22-19.92,3.15l-27.96,38.48-35.13-48.34,46.41-15.08c7.49-2.44,11.59-10.48,9.15-17.97-2.43-7.49-10.45-11.59-17.97-9.16l-55.22,17.94L146.11,6.45c-4.63-6.38-13.55-7.78-19.92-3.15-6.38,4.63-7.78,13.55-3.15,19.92l27.96,38.48-56.84,18.47V31.91c0-7.88-6.38-14.26-14.26-14.26s-14.26,6.39-14.26,14.26v57.51l-54.06,17.56C4.09,109.42,0,117.47,2.43,124.96c1.96,6.03,7.55,9.86,13.56,9.86,1.45,0,2.95-.23,4.41-.7l45.23-14.7v59.76l-46.4-15.08c-7.52-2.41-15.54,1.68-17.96,9.16-2.44,7.49,1.66,15.54,9.16,17.97l55.21,17.94v57.11c0,7.88,6.38,14.26,14.26,14.26s14.26-6.39,14.26-14.26v-47.84l56.84,18.47-28.68,39.47c-4.63,6.37-3.22,15.29,3.15,19.92,2.54,1.84,5.46,2.73,8.37,2.73,4.41,0,8.76-2.04,11.55-5.88l34.12-46.97,54.06,17.57c1.46.47,2.95.7,4.4.7,6.01,0,11.61-3.83,13.56-9.86,2.44-7.49-1.66-15.54-9.16-17.97l-45.24-14.7,35.13-48.35,28.68,39.48c2.79,3.84,7.13,5.88,11.55,5.88,2.91,0,5.85-.88,8.37-2.73,6.38-4.63,7.78-13.55,3.15-19.92ZM168.62,212.64l-74.47-24.2v-78.29l74.47-24.2,46.02,63.34-46.02,63.34Z"/>
  </g>
</svg>