<?xml version="1.0" encoding="UTF-8"?>
<svg id="Layer_2" data-name="Layer 2" xmlns="http://www.w3.org/2000/svg" viewBox="0 0 514.54 112.68">
  <defs>
    <style>
      .cls-1 {
        font-family: Montserrat-Regular, Montserrat;
        font-size: 17.67px;
        font-variation-settings: 'wght' 400;
      }

      .cls-2 {
        font-family: Cambo-Regular, Cambo;
        font-size: 72.47px;
      }

      .cls-3 {
        letter-spacing: 0em;
      }

      .cls-4 {
        letter-spacing: -.06em;
      }

      .cls-5 {
        letter-spacing: -.01em;
      }

      .cls-6 {
        letter-spacing: .02em;
      }
    </style>
  </defs>
  <g id="Layer_1-2" data-name="Layer 1">
    <g>
      <path d="M90.9,62.76l-10.95-15.06,10.71-14.74c1.48-2.04,1.03-4.9-1.01-6.39-2.05-1.49-4.9-1.03-6.39,1.01l-8.97,12.34-11.26-15.5,14.88-4.84c2.4-.78,3.72-3.36,2.93-5.76-.78-2.4-3.35-3.72-5.76-2.94l-17.71,5.75L46.67,1.89c-1.48-2.05-4.35-2.5-6.39-1.01-2.05,1.48-2.5,4.34-1.01,6.39l8.96,12.34-18.23,5.92v-15.47c0-2.53-2.05-4.57-4.57-4.57s-4.57,2.05-4.57,4.57v18.44l-17.34,5.63c-2.4.78-3.72,3.36-2.93,5.76.63,1.93,2.42,3.16,4.35,3.16.47,0,.95-.07,1.42-.22l14.51-4.71v19.16l-14.88-4.83c-2.41-.77-4.98.54-5.76,2.94-.78,2.4.53,4.98,2.94,5.76l17.7,5.75v18.31c0,2.53,2.05,4.57,4.57,4.57s4.57-2.05,4.57-4.57v-15.34l18.23,5.92-9.2,12.66c-1.48,2.04-1.03,4.9,1.01,6.39.81.59,1.75.87,2.69.87,1.41,0,2.81-.65,3.7-1.89l10.94-15.06,17.34,5.63c.47.15.95.22,1.41.22,1.93,0,3.72-1.23,4.35-3.16.78-2.4-.53-4.98-2.94-5.76l-14.51-4.71,11.26-15.5,9.2,12.66c.9,1.23,2.29,1.89,3.7,1.89.93,0,1.88-.28,2.69-.87,2.04-1.48,2.5-4.34,1.01-6.39ZM53.89,68.01l-23.88-7.76v-25.11l23.88-7.76,14.76,20.31-14.76,20.31Z"/>
      <text class="cls-1" transform="translate(322.39 104.68)"><tspan x="0" y="0">Find </tspan><tspan class="cls-4" x="44.5" y="0">Y</tspan><tspan x="54.67" y="0">our </tspan><tspan class="cls-5" x="89.35" y="0">T</tspan><tspan class="cls-3" x="99.24" y="0">rue No</tspan><tspan class="cls-6" x="158.97" y="0">r</tspan><tspan x="166.32" y="0">th</tspan></text>
      <text class="cls-2" transform="translate(105.51 69.41)"><tspan x="0" y="0">Setmycareer</tspan></text>
    </g>
  </g>
</svg>