<svg xmlns="http://www.w3.org/2000/svg" viewBox="0 0 241.94 355.99" width="261" height="384"  fill="#811d1d"><path d="M3.25 0h111q0 56.33 0 112.65l-5.07 1.63a18.92 18.92 0 0 0-7.93 11.45c-32.67-.08-65.33 0-98 0q0-62.83 0-125.66m28.48 6.71l-.22 2.12-4.09-.18c.94 1.13 2.21 2.3 1.42 3.88a66.05 66.05 0 0 0 3.89 5.4l-2.89 2.21c-.29 4.42 6 4.17 6.34 8.26-1.4.42-2.93.94-3.37 2.5-1.37 3.15-4.18 5.22-6.36 7.76a17 17 0 0 1-6.74.23 49 49 0 0 0-4 4.24 55.07 55.07 0 0 0 5 4.89c.23 1.6-.07 3.34.87 4.77L19.74 56l-1.57-2.36c-2.28 1-5.34-.63-6.81 1.93L9.08 56l1.83 2.35 3.89 2a25.34 25.34 0 0 1 5.2-.65c-.79 3.13-5.73 2.37-8.32 1.86l-1.06-1.5c-.08 4.56 4.71 6.94 8.38 8.35 3.49 1.06 4-3.09 5-5.35 1.46 1.45 1.47 3.31 1 5.19a14 14 0 0 1 .28 6.13c.73 1.05 1.72 2.07 1.59 3.47a43.42 43.42 0 0 0 3.53 15.74c.42 3.43 3.31 5.91 3.38 9.43 1.42 3.41 1.9 7.15 3.61 10.47a51.21 51.21 0 0 1 4 4.06l2.7-.1c.9-3.54 4.33-5.45 5.5-8.84l1.26-.35c.38-4.29 2.29-8.2 3.39-12.31-.36-3.33-1-7.54 1.83-10l2.3 1.05 2.27-2.33a4 4 0 0 1-.2-3.38 150.34 150.34 0 0 1 14.09-8.89 37.32 37.32 0 0 1 1.66-7.4c1.39-.09 2.58.77 3.84 1.21 1.26-4.73-.81-9.73-1.73-14.42 1.78-.89 3.14-2.53 1.06-4.12l2.76.12c2.76 3.13 1.46 7.61 3 11.24.12-2.06.1-4.13.06-6.2l3.06-2.92c.72 3 2.21 6 1.13 9.11s-.65 6.48-.63 9.73l2.27 2.13c.7-2.62 1.36-5.25 1.82-7.93l2 1.89c1.45-3.84-.83-7.84.3-11.61 1.74-.93 2.68.67 3.65 1.82a26 26 0 0 1-.92-5.39c1.91.72 2.14 2.86 2.85 4.49 1.47-2.26 4.16-3.64 5.23-6.1-1.1-.52-2.26 0-3.35.17-.72-3.75 4.09-3.5 6.13-5.41-.58-2.1-1.39-4.52-4.13-4 0-.28 0-.86-.06-1.14-3.1.78-5.3-1.73-7.91-2.83l-1.55 4.5-2.51-2.13c-1.74 1.64-1 3.34.43 4.81l-1.47 2.92-4.46.1-1.92-1.54L81 45.17a14 14 0 0 0 .9-6.3c-1.36 1.74-2.45 3.81-4.51 4.83a24 24 0 0 1-1.09 5c-4.44.61-8.4-1.88-12.64-2.62-3.51-2.86-8-3.64-11.92-5.69a9.07 9.07 0 0 1 4.93-4l-2.27-.85c-1.6-.45-2.11-2-2.61-3.37-2.64-1.62-4.78-4.08-4.29-7.41l2.8.21-.23-2.47c1.92-2.08 2.56-5 4.88-6.83l.08-2.83a55.14 55.14 0 0 0-6.14-.67l1.08-3.35H47.2c-.52 2-1.75 4.88-4.27 4.64-2.3-1.91-5.49-3.49-5.8-6.82-1.67 1.09-3.62.78-5.4.14zM119 0l109.65.08-.07 125.58q-48.33 0-96.67 0c-1-6.55-6.56-11.68-12.92-13.09Q119 56.33 119 0m12.79 26.15v41.92l38.52 19.61V45.85l-38.51-19.7M173.2 46l.07 41.8c12.77-6.4 25.39-13.1 38.09-19.64q0-21 0-41.89L173.2 46m-41.59 23.66l.29 2.46c4.59 3.28 10.16 5 15 8C154.82 84 162.49 88.4 170.55 92c.34-2.46-2-3.12-3.61-4l-35.33-18.33m41.72 20c0 .6-.11 1.8-.15 2.4 12.71-6.27 25.27-12.87 37.79-19.49l.74-2.66c-13 6.14-25.47 13.4-38.38 19.75m-41.69-15.36l.27 2.56c12.7 6.89 25.67 13.35 38.58 19.87l-.51-2.74-38.34-19.69m41.61 19.79v2.66l37.95-19.69.36-2.67-38.27 19.7m-41.73-15.54l.61 2.94 38.26 19.5-.38-2.64-38.49-19.82m41.65 19.79c0 .67.07 2 .09 2.69 12.78-6.24 25.18-13.19 38-19.41v-2.83l-38.07 19.55m-41.68-15.1l.43 2.72 38.43 19.77a3 3 0 0 0-1.7-3.52l-37.16-19m41.88 19.82l-.27 2.65c11.27-5.39 22.18-11.49 33.36-17.07 2.21-1.23 5.56-2 5.1-5.23l-38.19 19.68zM3.26 130.21h98.15c1.09 6.59 6.6 12.43 13.46 12.78 7.93 1.1 15.78-5 17-12.83q48.33.09 96.67 0l-.08 79.82C224 241.93 205.2 271.7 177.93 289c-14.46 10-31.63 15.57-49 17.85-8 .32-16 .12-24.06.11a113.06 113.06 0 0 1-82.13-48.8c-8.59-11.92-14-25.84-17.58-40A94.29 94.29 0 0 1 3.27 204q0-36.87 0-73.74m95.21 35.65l-42 .07v6h15.18c-.09 2.68.29 5.48-.66 8.06l-26 71c-.53 2-3.21.79-4.7 1.18v5.68l67.13.08v-6l-5 .08L77 179c-.71-2.25-.35-4.67-.43-7h80.74c.93 6.15-2.33 11.55-4.14 17.19l-23.08 63h-4.28v5.82l67.4-.21c0-1.85-.07-3.69-.08-5.54l-5.23-.11-25-72.87c-.86-2.32-.57-4.83-.64-7.25h18.49q0-3 0-6-22.14 0-44.3 0l-5.17-17.48c-2 0-4 .07-6 .13l-1.88 3.79 5 .05a189.3 189.3 0 0 1 3.74 13.48h-13q1.92-1.7 4-3.24c-.1-1.57 0-3.32-1.29-4.47a26 26 0 0 1-4.68-8.18c-.84 3.47-3.13 6.24-5.42 8.88-1 1-.66 2.56-.87 3.85a38.24 38.24 0 0 1 4.53 3.16c-4.21.13-8.42 0-12.63.07.88-4.57 2.26-9 3.35-13.55h5.18l-2-3.91h-5.51c-2.01 5.6-3.73 11.39-5.33 17.25zM50 252.19c6.91-19.94 14.27-39.72 21.51-59.55.38 19.79 0 39.59.18 59.38-7.24.36-14.48.07-21.69.17z"/><path d="M76.64 192.69c1.72 3.6 2.66 7.51 4.07 11.23l16.38 48.26H76.6l.04-59.49zm58.81 59.46l21.57-59.69c.54 19.88.11 39.81.22 59.71-7.24.01-14.53.04-21.79-.02zm26.89-59.52a57.88 57.88 0 0 1 3.06 8.28l17.35 51.3c-6.83-.13-13.66.14-20.49-.16l.08-59.42zm57.72 86.45c.92-1.62 2.64-1.1 4.11-.74l-3.65 4.87 15.61 15.52-3.22 1-8.7-8.67c-2.68 3.29-6.76 5.25-8.9 9 1 1.53 1.88 3.25 3.56 4.15 2.57 1.64 6.5 0 8.47 2.71-4.63-.36-10-.25-13.45-3.84-1.5-1.13-1.82-3-2-4.74 3.68-2.83 7-6.15 10.55-9.07l-3.82-4c-5.77 5.47-10.81 11.8-17.6 16.09q6.79 8.79 13.58 17.6H211c-2.06-3.07-4.56-5.81-6.64-8.85A12.06 12.06 0 0 1 198 319c-1.92.77-4 1.11-6 1.72a72.7 72.7 0 0 1-1.92 4.8c.72 1.29 1.33 2.88 3 3.17 1.81.07 3.3-1.06 4.83-1.85l-2.17-3.13c1-.81 1.71-2.65 3.37-2 2.3.69 2.44 3.24 3.22 5.11a20.82 20.82 0 0 0 4.39 2.6l.78 1.89a62.81 62.81 0 0 1-5.79-3.22c-3 0-5.38 3.37-8.58 2.38-2-.61-4.53-1.09-5.39-3.24-1.15-2.36 0-5 .91-7.18l-4.62-1.16c-2.06-2-4.28-5.8-1.35-8.05 2.89-3.23 7.65-1.46 10.17 1.29 1.4 1.74 1.33 4.06 1.54 6.16 4.38-1.76 6.89-6.16 8.31-10.43-1.37-1.59-2.67-3.24-4-4.87-1.92 2.14-4.07 4.46-7.25 3.37 4.22-5.1 10.18-8.3 14.89-12.88s9.49-9.24 13.71-14.36m-33.58 32.4c-2 .6-1.88 2.76-1.92 4.47 1.57 1.22 3.23 2.93 5.44 2.42 3.56-1.99.35-9.41-3.51-6.93zm41.72-33.09l4.35-.07.11 3.59-3.65.05-.81-3.57zM5.94 282c1.28-1 2.45-2.42 4.12-2.74a7.46 7.46 0 0 1 5.45 5.52c-1.09 2.82-4 3.63-6.6 2.13a8.78 8.78 0 0 1 4.09-1.07l1.56-1.84c-1.1-.91-1.86-3.14-3.65-2.55-2.6.14-1.68 3.57-2.62 5.31l.71 2.11 2 1.38-2 2c-1.52-1.37-2.91-3.1-5-3.5-2.72.25-3 3.8-1 5.25 3.28 4.19 9 3.09 13.65 3.95a80.7 80.7 0 0 0 5.63-5.92l-4.49-4.54 1.67-2.39A87.81 87.81 0 0 0 29 295c4.89 3.38 9.76 6.8 14.45 10.46 3.6 2.32 7.46 4.21 11.25 6.21l-1-2.7 1-2.55.79-.11c.67-1.75.54-4.37 2.69-5.05 3.28-1.89 6.94 2.56 6.21 5.78l-4.19-3.74c-3.12 1.87-4 5.56-3.7 9a23.4 23.4 0 0 0 4.37 2.39l-.12 3.19-5.35-2.7c-2.76 6.51-5.85 12.87-8.84 19.28-.47-1.07-2.32-2-1.6-3.27 2.5-5.76 5.55-11.27 8.07-17-2.63-1.66-5.35-3.15-8-4.71-3.76 6.17-6.88 12.71-10.76 18.8l-1.29-3.09c1.14-2.18 2.36-4.32 3.67-6.4a82.69 82.69 0 0 0-8.81-6.43c-1.27.56-1.75 2.9-3.37 2.37-.43-2.84-.67-5.71-.92-8.57l2.82 2.42a89.37 89.37 0 0 0 5.57-7.72c-2.58-2.21-5-4.61-7.5-6.88-5 5.16-9.66 10.7-15.14 15.35-1.88-4.28 3.64-6 5.53-8.89-3.9-.24-8.24.22-11.35-2.65-3.94-2.65-4.81-9-.39-11.64H6c0-1.37 0-2.74-.08-4.1m23.14 27.77c2.9 2.13 5.76 4.33 8.6 6.54l4.42-8.1c-2.46-2-5.09-3.81-7.66-5.68-1.9 2.24-3.64 4.69-5.34 7.17zm209.13-24.13l3.75.15-.1 3.79-3.69-.11.04-3.83zM47.87 295.2l2.84 1.38a21.58 21.58 0 0 1 3.37 11.34c-1.52-3.32-2.69-7.44-6.52-8.79l.31-3.93z"/><path d="M169.66 306.68c4.38-5.47 12.87-4.23 18.3-1.07-5-1.09-10.33-1-14.88 1.7-1.39 2.29-2.74 5.76 0 7.65 2.37.25 4.52-2.29 6.83-.8.62 2.23-2.43 2.21-3.73 3.15 3.11 6.32 6 12.75 8.82 19.2-3.56.9-4.29-2.72-5.47-5.1-1.88-4.32-3.86-8.59-5.87-12.85l-10.59 4.2c1.45 3.64 3.4 7.27 3.68 11.24l-1.44 2.2a47.89 47.89 0 0 1 8.57 4.84c-2.2.2-4.07-1.11-5.93-2.06-2.83-1.53-5.87-2.72-8.47-4.66-1.47-2.2 2.21-2.39 3.47-3a69.12 69.12 0 0 0-2.31-7.28 90.9 90.9 0 0 0-5.07 1.42l-2.64-2c6.24-2.12 12.23-4.93 18.56-6.82-1.49-3.03-4.58-6.71-1.83-9.96zm-50.06 14.05c1.21-2.76 4.62-3.42 7.32-3.21 4.82.26 8.66 3.5 12.25 6.37l.6-.68-.27 2.67a50.62 50.62 0 0 1 5.48-.81c.75.74 1.41 1.56 2.09 2.37l-6.1 1.08c1.64 6.85 2.65 13.84 3.84 20.78l-2.81-1.14-2-11.75c-2.79.18-5.61.64-7.87 2.42 0 4.28 2.71 7.57 5.1 10.84a16.68 16.68 0 0 1-7.81-10.34c-.39-1.74.29-4.16 2.24-4.59 2.48-.51 5-.53 7.55-.81l-.94-4.77a84.25 84.25 0 0 1-14.34 1.49 769.4 769.4 0 0 1 1.11 21.47l-2.71-1.12c-.6-6.58-.82-13.18-1.31-19.76a58.29 58.29 0 0 1-10-.82c-1.26 7.46-1.56 15.07-3.26 22.45-3.77-3.43-.9-8.51-.66-12.77a74.84 74.84 0 0 1-8.29 1.31c-3 .29-5.54-1.71-8-3.12a51.31 51.31 0 0 0-5.07 3.44v3.55a34.17 34.17 0 0 0 4.94 1.57c.84-1.42.72-4.64 3.2-3.68 3 .86 2.1 4.6.4 6.46.62 2.14 1.25 4.27 2 6.38H95c-.73-2.11-1.33-4.26-2-6.39-3.66-.25-8-1.33-9.3-5.23-2-3.77 1.37-7.57 5-8.51-1.75-2.54-4.1-6-1.77-8.92 2-3.8 7.3-2.09 8.87 1.18 2.58 3.32.47 7.48-1.72 10.35 3.87 0 7.84.07 11.56-1.16 3-.64 2.77-4.71 2.22-7-2.5-.48-5-.62-7.55-.89l-1.1-3.06a157.07 157.07 0 0 0 20.41 2c-.16-2.51-1.19-5.21 0-7.6m1.71 7.54c6.19.26 12.16-1.68 18.29-2.19a15.88 15.88 0 0 0-14.62-5.71c-3.31 1-4 4.86-3.72 7.85m-32.58 2.65c-.46 2.1 1 3.64 2.21 5.14 2.7-1 5.72-4.53 3.22-7.18-1.59-2.38-6.13-1.07-5.43 2.04zm-18.8-12.05c4.6 1.6 9.29 2.94 13.92 4.47l.36 2.82c-2-.63-3.93-1.31-5.9-2-1.73 4.07-1.32 10.66-6.44 12.05a71 71 0 0 1 3.94 8.79c-2.67-.48-2.76-3.78-4-5.69-1.1-3.09-4-5.94-3-9.41l4.16 1.34a32.11 32.11 0 0 0 2.39-7.95l-5.28-1.33z"/></svg>