<svg xmlns="http://www.w3.org/2000/svg" viewBox="0 0 26.279 27.234" fill="currentColor" role="img" aria-label="Setmycareer logomark">
  <path d="M 7.350 25.559 C 6.635 25.559 6.057 24.980 6.057 24.266 L 6.057 3.015 C 6.057 2.301 6.635 1.722 7.350 1.722 C 8.065 1.722 8.643 2.301 8.643 3.015 L 8.643 24.266 C 8.643 24.980 8.065 25.559 7.350 25.559 Z"/>
  <path d="M 1.556 12.346 C 1.011 12.346 0.504 11.999 0.327 11.452 C 0.106 10.773 0.477 10.044 1.156 9.823 L 21.389 3.248 C 22.072 3.028 22.799 3.400 23.019 4.079 C 23.240 4.758 22.868 5.487 22.189 5.708 L 1.956 12.283 C 1.823 12.325 1.688 12.346 1.556 12.346 Z"/>
  <path d="M 24.814 19.971 C 24.414 19.971 24.020 19.786 23.767 19.438 L 11.262 2.226 C 10.842 1.648 10.969 0.840 11.548 0.420 C 12.125 0.000 12.934 0.128 13.354 0.706 L 25.859 17.918 C 26.279 18.495 26.151 19.304 25.573 19.724 C 25.344 19.891 25.078 19.971 24.814 19.971 Z"/>
  <path d="M 12.242 27.234 C 11.978 27.234 11.713 27.154 11.483 26.987 C 10.905 26.567 10.777 25.759 11.197 25.181 L 23.701 7.970 C 24.121 7.391 24.928 7.264 25.508 7.684 C 26.086 8.104 26.213 8.912 25.794 9.490 L 13.289 26.701 C 13.036 27.049 12.642 27.234 12.242 27.234 Z"/>
  <path d="M 21.684 24.098 C 21.552 24.098 21.418 24.077 21.285 24.035 L 1.052 17.461 C 0.372 17.240 0.000 16.510 0.221 15.831 C 0.441 15.152 1.168 14.782 1.850 15.001 L 22.083 21.575 C 22.763 21.796 23.135 22.525 22.913 23.204 C 22.736 23.751 22.229 24.098 21.684 24.098 Z"/>
</svg>
